:SAMPLES-PER-SECOND 30
:FULLY-SPECIFIED
:DEGREES
279
root  -3.35313 40.467 -1.01558 25.1966 -84.2568 -28.6154
RightUpLeg  5.51221 -1.46012 4.19989
RightLeg  3.06158 -31.2861 0.358683
RightFoot  -4.34496 -0.108057 1.34916
RightToes  -3.1126e-008 1.75238e-005 3.56266e-009
Spine  -8.29365 -2.97875 -5.26411
Spine1  16.408 -3.5803 4.64225
HEad  -10.2331 0.678672 -1.39972
LeftShoulder1  2.48405 -5.61398 -20.8529
LeftArm  -29.1417 -22.4587 -61.128
LeftForeArm  -2.69127 -61.2977 -21.4751
LeftHand  0.421139 -4.38471 -4.71628
RightShoulder  2.13026 4.08674 21.8218
RightArm  -3.96898 -19.3431 56.3157
RightForeArm  33.3948 34.1271 5.67439
RightHand  0.310321 3.12483 4.00598
LeftUpLeg  -0.132627 6.38701 7.28737
LeftLeg  13.2197 2.03597 0.655677
LeftFoot  -8.27029 0.16663 -4.36402
LeftToes  4.78349e-008 1.46828e-008 1.33736e-009
280
root  -3.57012 40.4862 -1.05111 29.1751 -84.928 -32.8926
RightUpLeg  6.2873 -1.43058 4.2746
RightLeg  2.74118 -30.5648 0.517652
RightFoot  -4.43706 -0.111052 1.39565
RightToes  -3.1126e-008 1.75238e-005 3.56266e-009
Spine  -9.74116 -3.39377 -6.18326
Spine1  16.3198 -4.01796 5.1784
HEad  -10.3118 2.12175 -2.06726
LeftShoulder1  2.39769 -5.50119 -20.1887
LeftArm  -31.2047 -27.4393 -61.8265
LeftForeArm  -5.25222 -63.6733 -24.3346
LeftHand  0.415254 -4.86685 -4.3961
RightShoulder  2.2238 4.4399 21.7444
RightArm  -3.64028 -18.8651 56.2214
RightForeArm  33.337 35.7279 6.08472
RightHand  0.183014 3.15719 2.24441
LeftUpLeg  1.04963 6.99386 7.65766
LeftLeg  12.5867 2.08827 0.510539
LeftFoot  -8.46851 0.167264 -4.64686
LeftToes  4.78349e-008 1.46828e-008 1.33736e-009
281
root  -3.74163 40.471 -1.08955 35.6933 -85.5228 -39.8114
RightUpLeg  7.00097 -1.48689 4.38389
RightLeg  2.65473 -29.7756 0.646031
RightFoot  -4.71471 -0.100691 1.2403
RightToes  -3.1126e-008 1.75238e-005 3.56266e-009
Spine  -11.1372 -3.62347 -6.67261
Spine1  16.7433 -4.2148 5.44922
HEad  -10.434 2.7871 -1.83315
LeftShoulder1  2.21664 -5.16803 -19.0424
LeftArm  -33.2105 -32.2597 -63.3814
LeftForeArm  -7.06637 -64.4441 -25.4927
LeftHand  0.29595 -4.75109 -3.11698
RightShoulder  2.30232 4.73762 21.6789
RightArm  -3.83747 -18.205 56.4102
RightForeArm  32.3517 36.8168 6.43268
RightHand  0.107914 3.29443 1.2201
LeftUpLeg  1.96862 7.15813 7.96992
LeftLeg  12.5538 2.58637 0.625854
LeftFoot  -8.93298 0.158079 -4.97143
LeftToes  4.78349e-008 1.46828e-008 1.33736e-009
282
root  -3.86823 40.4116 -1.14003 48.9994 -86.1794 -53.6401
RightUpLeg  7.515 -1.49581 4.66915
RightLeg  3.1787 -28.7085 0.47741
RightFoot  -5.32353 -0.0966672 1.18981
RightToes  -3.1126e-008 1.75238e-005 3.56266e-009
Spine  -12.2352 -3.42441 -6.57385
Spine1  17.2996 -3.98237 5.59336
HEad  -10.4156 3.94953 -1.93925
LeftShoulder1  2.01807 -4.79791 -17.693
LeftArm  -35.3717 -37.0646 -64.9862
LeftForeArm  -9.00401 -62.8083 -23.7264
LeftHand  0.066086 -4.39026 -0.459149
RightShoulder  2.31589 4.79483 21.6478
RightArm  -3.83325 -17.6249 56.4929
RightForeArm  30.9829 37.9549 6.82659
RightHand  -0.00131992 3.5312 -0.278993
LeftUpLeg  2.64303 8.14457 8.60662
LeftLeg  13.3068 2.56487 0.708765
LeftFoot  -9.70024 0.132391 -5.18532
LeftToes  4.78349e-008 1.46828e-008 1.33736e-009
283
root  -3.95353 40.3245 -1.20949 61.2706 -86.2355 -66.7504
RightUpLeg  8.24451 -1.44393 5.20749
RightLeg  3.87912 -28.1372 0.12935
RightFoot  -6.03144 -0.102468 1.29945
RightToes  -3.1126e-008 1.75238e-005 3.56266e-009
Spine  -13.111 -3.18343 -6.14795
Spine1  18.3127 -3.69638 5.54275
HEad  -9.63218 3.76448 -1.51627
LeftShoulder1  1.88553 -4.60986 -16.5345
LeftArm  -38.1425 -42.2458 -65.9349
LeftForeArm  -13.7741 -58.5625 -20.0164
LeftHand  -0.144483 -2.74427 2.27319
RightShoulder  2.31175 4.81871 21.507
RightArm  -4.5826 -16.9008 56.9322
RightForeArm  30.5245 38.5231 7.01483
RightHand  -0.0366368 3.25821 -0.72767
LeftUpLeg  3.18427 9.14585 9.48946
LeftLeg  14.7208 1.97406 0.776847
LeftFoot  -10.6005 0.0986326 -5.44375
LeftToes  4.78349e-008 1.46828e-008 1.33736e-009
284
root  -4.00551 40.231 -1.26999 71.641 -86.0219 -77.9013
RightUpLeg  8.71402 -1.57996 5.66532
RightLeg  4.90902 -27.5009 -0.162693
RightFoot  -6.75094 -0.0932109 1.18423
RightToes  -3.1126e-008 1.75238e-005 3.56266e-009
Spine  -14.2543 -2.94129 -5.146
Spine1  19.8186 -3.2903 4.91544
HEad  -9.05386 4.59607 -1.44751
LeftShoulder1  1.789 -4.57001 -15.3434
LeftArm  -41.6424 -46.9574 -65.8936
LeftForeArm  -17.5022 -52.5675 -16.0356
LeftHand  -0.244682 -1.33143 4.38474
RightShoulder  2.42066 5.16547 21.6643
RightArm  -5.09943 -16.0296 57.059
RightForeArm  30.7013 38.156 6.90056
RightHand  -0.0451994 3.40264 -0.842753
LeftUpLeg  3.5935 10.0077 10.4517
LeftLeg  16.1586 1.42517 0.772694
LeftFoot  -11.5248 0.0598534 -5.72952
LeftToes  4.78349e-008 1.46828e-008 1.33736e-009
285
root  -4.05231 40.1413 -1.36461 76.1349 -85.6036 -83.307
RightUpLeg  9.40729 -1.58749 6.32317
RightLeg  5.7588 -27.3957 -0.493958
RightFoot  -7.36037 -0.0931394 1.24473
RightToes  -3.1126e-008 1.75238e-005 3.56266e-009
Spine  -14.8608 -2.89403 -4.72928
Spine1  20.9109 -3.24783 4.93404
HEad  -7.95864 4.64158 -1.2797
LeftShoulder1  1.66846 -4.43441 -14.1104
LeftArm  -44.7006 -49.6775 -65.1037
LeftForeArm  -20.3434 -47.2687 -13.4016
LeftHand  -0.241766 0.127065 5.25705
RightShoulder  2.46862 5.42907 21.3526
RightArm  -5.2917 -15.4605 57.6475
RightForeArm  30.524 37.4326 6.70965
RightHand  -0.0499849 3.05754 -0.914739
LeftUpLeg  4.15386 10.6631 11.5939
LeftLeg  17.4416 0.67236 0.562296
LeftFoot  -12.3731 0.0210231 -5.91022
LeftToes  4.78349e-008 1.46828e-008 1.33736e-009
